<?xml version="1.0" standalone="no"?>
<!DOCTYPE svg PUBLIC "-//W3C//DTD SVG 20010904//EN"
 "http://www.w3.org/TR/2001/REC-SVG-20010904/DTD/svg10.dtd">
<svg version="1.0" xmlns="http://www.w3.org/2000/svg"
 width="300.000000pt" height="300.000000pt" viewBox="0 0 300.000000 300.000000"
 preserveAspectRatio="xMidYMid meet">
<metadata>
Created by potrace 1.10, written by Peter Selinger 2001-2011
</metadata>
<g transform="translate(0.000000,300.000000) scale(0.100000,-0.100000)"
fill="#000000" stroke="none">
<path d="M955 2039 c-51 -14 -87 -61 -93 -117 -2 -27 0 -58 6 -68 5 -9 86 -93
178 -186 l169 -168 -166 -167 c-92 -93 -172 -178 -178 -190 -26 -52 -5 -133
45 -167 30 -21 81 -28 117 -17 21 7 110 89 265 244 247 248 256 260 238 334
-10 39 -437 469 -491 494 -44 21 -47 21 -90 8z"/>
<path d="M1557 2035 c-51 -17 -63 -30 -82 -79 -30 -78 -17 -100 170 -286 91
-91 165 -167 165 -171 0 -3 -74 -79 -163 -170 -116 -116 -168 -175 -176 -201
-34 -103 68 -203 171 -169 46 15 471 441 493 494 31 75 18 94 -223 336 -119
120 -228 225 -242 233 -39 24 -72 28 -113 13z"/>
</g>
</svg>
