<?xml version="1.0" standalone="no"?>
<!DOCTYPE svg PUBLIC "-//W3C//DTD SVG 20010904//EN"
 "http://www.w3.org/TR/2001/REC-SVG-20010904/DTD/svg10.dtd">
<svg version="1.0" xmlns="http://www.w3.org/2000/svg"
 width="297.000000pt" height="272.000000pt" viewBox="0 0 297.000000 272.000000"
 preserveAspectRatio="xMidYMid meet">

<g transform="translate(0.000000,272.000000) scale(0.100000,-0.100000)"
fill="#000000" stroke="none">
<path d="M1182 2370 c-157 -131 -252 -217 -252 -228 0 -35 21 -42 132 -42
l108 0 0 -308 c0 -226 3 -311 12 -320 18 -18 46 -14 58 7 16 30 14 662 -2 684
-10 12 -32 17 -85 19 l-72 3 185 153 184 153 184 -153 185 -153 -72 -3 c-39
-2 -77 -8 -84 -14 -10 -8 -13 -69 -13 -264 0 -216 2 -255 16 -268 19 -20 29
-20 48 0 14 13 16 49 16 240 l0 224 108 0 c111 0 132 7 132 42 0 21 -495 438
-520 438 -9 0 -129 -95 -268 -210z"/>
<path d="M1502 2088 c-8 -8 -12 -56 -12 -150 0 -126 2 -138 19 -148 25 -13 27
-13 45 6 13 12 16 41 16 148 0 135 -5 156 -40 156 -9 0 -21 -5 -28 -12z"/>
<path d="M381 1870 c-72 -83 -131 -159 -131 -168 0 -16 195 -253 246 -299 30
-27 37 -28 58 -7 11 11 16 35 16 80 l0 64 40 0 40 0 0 -388 c0 -393 2 -412 36
-412 7 0 20 7 28 16 14 13 16 64 16 405 0 484 8 459 -140 459 -85 0 -96 -6
-102 -57 -3 -31 -3 -31 -76 54 l-72 85 40 47 c21 25 55 64 74 86 l35 40 1 -37
c0 -26 6 -40 19 -48 11 -6 87 -10 176 -10 235 0 245 -10 245 -237 0 -143 5
-163 42 -163 33 0 40 36 36 189 -3 138 -4 149 -30 193 -15 25 -45 57 -65 70
-35 21 -51 23 -190 26 l-153 4 0 60 c0 68 -12 98 -40 98 -12 0 -66 -55 -149
-150z"/>
<path d="M2342 2008 c-7 -7 -12 -40 -12 -80 l0 -68 -143 0 c-131 0 -148 -2
-188 -23 -24 -13 -57 -43 -74 -66 -30 -42 -30 -44 -33 -196 -4 -160 3 -195 36
-195 37 0 42 20 42 167 0 226 8 233 249 233 177 0 191 4 191 63 l1 32 22 -26
c12 -15 46 -54 74 -87 l53 -60 -73 -85 c-72 -84 -72 -85 -75 -53 -6 50 -17 56
-107 56 -67 0 -87 -4 -106 -19 l-24 -19 -3 -401 c-3 -412 0 -441 36 -441 41 0
42 9 42 412 l0 388 40 0 40 0 0 -63 c0 -73 15 -103 47 -93 25 8 267 288 271
314 4 24 -252 322 -276 322 -10 0 -23 -5 -30 -12z"/>
<path d="M1342 1968 c-8 -8 -12 -60 -12 -170 0 -145 1 -158 19 -168 25 -13 27
-13 45 6 13 13 16 43 16 168 0 155 -5 176 -40 176 -9 0 -21 -5 -28 -12z"/>
<path d="M822 1328 c-17 -17 -17 -279 0 -296 16 -16 33 -15 52 4 13 12 16 40
16 140 0 69 -5 134 -10 145 -12 21 -40 25 -58 7z"/>
<path d="M2022 1328 c-8 -8 -12 -55 -12 -144 0 -107 3 -136 16 -148 8 -9 21
-16 28 -16 30 0 36 25 36 160 0 139 -5 160 -40 160 -9 0 -21 -5 -28 -12z"/>
<path d="M1312 1280 c-153 -40 -284 -143 -356 -279 -86 -164 -88 -336 -4 -510
65 -136 180 -234 338 -287 83 -28 244 -26 332 4 326 112 478 476 326 782 -46
91 -161 207 -251 249 -128 61 -256 75 -385 41z m251 -75 c89 -23 145 -54 212
-117 158 -147 198 -368 104 -565 -31 -66 -151 -183 -219 -215 -190 -88 -404
-52 -549 93 -216 215 -182 563 72 737 107 74 254 100 380 67z"/>
<path d="M1422 1128 c-7 -7 -12 -36 -12 -65 0 -39 -4 -53 -14 -53 -23 0 -78
-51 -92 -87 -43 -102 20 -204 137 -222 86 -14 118 -83 64 -136 -48 -49 -113
-25 -137 50 -14 43 -38 55 -65 34 -37 -31 13 -142 76 -169 29 -12 31 -16 31
-64 0 -54 12 -76 42 -76 24 0 38 30 38 82 0 39 3 45 38 63 40 22 82 90 82 135
0 75 -83 159 -158 160 -43 0 -82 38 -82 80 0 41 39 80 80 80 37 0 80 -39 80
-73 0 -48 52 -65 72 -22 9 19 7 34 -6 70 -17 43 -68 95 -94 95 -7 0 -12 18
-12 46 0 25 -5 54 -10 65 -12 21 -40 25 -58 7z"/>
<path d="M1224 1066 c-66 -44 -100 -85 -138 -166 -28 -58 -31 -75 -31 -160 0
-86 3 -101 32 -162 37 -80 96 -146 158 -179 47 -25 76 -20 83 14 3 17 -3 23
-65 67 -152 107 -177 332 -54 472 22 24 55 52 75 63 40 22 54 49 36 70 -19 23
-41 18 -96 -19z"/>
<path d="M1580 1085 c-18 -22 -4 -48 40 -73 85 -48 150 -166 150 -272 0 -106
-61 -217 -148 -270 -48 -29 -61 -55 -39 -77 21 -22 55 -11 114 36 99 78 161
217 150 335 -12 128 -78 242 -174 304 -55 35 -75 39 -93 17z"/>
<path d="M462 768 c-17 -17 -17 -319 0 -336 18 -18 46 -14 58 7 5 11 10 84 10
165 0 118 -3 147 -16 160 -19 19 -36 20 -52 4z"/>
<path d="M2386 764 c-13 -13 -16 -42 -16 -160 0 -149 7 -184 38 -184 38 0 42
19 42 180 0 155 -5 180 -36 180 -7 0 -20 -7 -28 -16z"/>
<path d="M782 448 c-17 -17 -17 -239 0 -256 18 -18 46 -14 58 7 5 11 10 67 10
125 0 82 -3 108 -16 120 -19 19 -36 20 -52 4z"/>
<path d="M2065 444 c-24 -24 -18 -242 8 -258 12 -8 22 -8 35 0 14 9 17 30 20
129 3 117 -4 145 -34 145 -7 0 -20 -7 -29 -16z"/>
</g>
</svg>
