<?xml version="1.0" standalone="no"?>
<!DOCTYPE svg PUBLIC "-//W3C//DTD SVG 20010904//EN"
 "http://www.w3.org/TR/2001/REC-SVG-20010904/DTD/svg10.dtd">
<svg version="1.0" xmlns="http://www.w3.org/2000/svg"
 width="308.000000pt" height="272.000000pt" viewBox="0 0 308.000000 272.000000"
 preserveAspectRatio="xMidYMid meet">

<g transform="translate(0.000000,272.000000) scale(0.100000,-0.100000)"
fill="#000000" stroke="none">
<path d="M1505 2576 c-82 -38 -117 -130 -83 -222 11 -32 10 -35 -25 -69 -63
-62 -82 -108 -82 -205 0 -97 18 -135 79 -164 49 -23 298 -23 356 0 66 27 85
64 85 164 -1 98 -20 144 -82 205 -35 34 -36 37 -25 69 33 91 0 180 -82 221
-62 31 -78 31 -141 1z m130 -91 c17 -16 25 -35 25 -60 0 -25 -8 -44 -25 -60
-16 -17 -35 -25 -60 -25 -25 0 -44 8 -60 25 -17 16 -25 35 -25 60 0 25 8 44
25 60 16 17 35 25 60 25 25 0 44 -8 60 -25z m58 -252 c64 -61 88 -174 46 -227
-20 -26 -21 -26 -164 -26 l-144 0 -21 28 c-19 23 -21 36 -17 88 5 74 29 118
78 147 30 18 50 22 114 20 70 -2 81 -4 108 -30z"/>
<path d="M1030 2027 c-114 -71 -235 -188 -306 -295 -56 -83 -120 -229 -145
-327 -29 -116 -33 -262 -6 -279 12 -8 22 -8 35 0 13 9 18 31 24 105 19 278
175 546 410 706 74 51 89 73 68 98 -17 20 -39 18 -80 -8z"/>
<path d="M2040 2035 c-21 -25 -6 -47 68 -98 236 -161 385 -420 410 -713 5 -67
11 -89 25 -98 27 -17 51 4 55 50 5 49 -13 167 -40 264 -53 195 -180 389 -337
514 -118 94 -156 111 -181 81z"/>
<path d="M1485 1805 c-104 -16 -114 -19 -215 -68 -64 -32 -101 -59 -155 -113
-125 -127 -184 -258 -193 -424 -16 -321 181 -594 488 -676 98 -26 266 -23 350
6 103 36 190 84 253 140 345 310 263 875 -156 1079 -116 57 -241 76 -372 56z
m-55 -100 c0 -3 -20 -30 -46 -61 -25 -31 -56 -74 -70 -95 l-25 -40 -50 27
c-30 17 -49 33 -47 42 7 37 238 160 238 127z m401 -34 c64 -32 129 -81 129
-97 0 -6 -22 -23 -49 -38 l-49 -26 -55 77 c-29 43 -61 84 -70 92 -10 7 -17 18
-17 23 0 14 45 2 111 -31z m-293 -117 l-3 -99 -55 1 c-30 1 -68 7 -83 13 l-28
11 18 32 c28 49 135 160 145 150 5 -5 7 -53 6 -108z m147 64 c25 -29 57 -72
71 -96 l25 -42 -28 -11 c-15 -6 -53 -12 -83 -13 l-55 -1 -3 94 c-4 142 3 148
73 69z m-494 -147 c37 -22 63 -45 61 -53 -2 -7 -12 -46 -23 -87 -10 -41 -19
-87 -19 -103 l0 -28 -106 0 -106 0 7 48 c9 61 50 166 87 220 16 23 31 42 32
42 2 0 33 -18 67 -39z m851 22 c40 -45 108 -223 108 -281 0 -9 -30 -12 -103
-12 l-103 0 -12 82 c-8 45 -20 97 -27 115 -14 32 -13 34 13 50 15 9 43 26 62
39 43 28 43 28 62 7z m-648 -108 c27 -8 66 -15 86 -15 52 0 61 -16 58 -97 l-3
-68 -124 -3 -124 -3 6 48 c7 58 35 153 45 153 4 0 29 -7 56 -15z m441 -37 c9
-29 19 -75 22 -101 l6 -48 -124 3 -124 3 -3 68 c-4 82 6 97 62 98 22 0 59 6
81 14 61 20 63 19 80 -37z m-631 -240 c2 -7 9 -44 16 -83 7 -38 19 -86 26
-106 l12 -36 -41 -23 c-23 -13 -53 -32 -67 -42 -24 -19 -25 -19 -43 4 -51 62
-117 246 -103 284 7 19 195 20 200 2z m331 -11 c4 -13 5 -49 3 -82 l-3 -59
-87 -17 c-48 -9 -91 -20 -96 -23 -5 -3 -14 0 -20 7 -14 16 -42 128 -42 166 l0
31 120 0 c116 0 120 -1 125 -23z m325 -8 c0 -38 -28 -150 -42 -166 -6 -7 -15
-10 -20 -7 -5 3 -48 14 -96 23 l-87 17 -3 59 c-6 108 -10 105 128 105 l120 0
0 -31z m285 21 c17 -28 -32 -177 -87 -263 -29 -45 -32 -47 -52 -33 -11 9 -42
27 -68 42 l-46 26 12 37 c7 20 19 68 26 106 7 39 14 76 16 83 4 15 190 17 199
2z m-607 -357 c3 -122 -2 -126 -70 -55 -60 61 -102 129 -86 138 21 13 72 22
113 21 l40 -2 3 -102z m223 87 c19 -11 19 -12 2 -42 -29 -51 -128 -152 -141
-144 -13 8 -17 187 -4 200 9 10 117 -1 143 -14z m-428 -98 c21 -31 54 -77 75
-101 l37 -44 -30 7 c-78 19 -224 105 -225 132 0 12 76 63 95 64 6 0 27 -26 48
-58z m584 33 c23 -14 43 -31 42 -38 -1 -26 -153 -116 -224 -133 -29 -7 -29 -6
-14 12 70 84 99 124 113 152 20 39 27 39 83 7z"/>
<path d="M585 971 c-22 -10 -50 -29 -62 -42 -54 -59 -69 -164 -33 -234 l20
-39 -55 -48 c-79 -71 -107 -137 -108 -253 -1 -101 11 -135 63 -179 49 -41 97
-48 291 -44 l177 3 39 31 c21 16 48 50 61 75 20 38 23 54 18 119 -7 115 -29
165 -102 237 l-63 61 20 38 c37 73 17 187 -42 241 -58 53 -152 67 -224 34z
m151 -80 c20 -12 38 -36 49 -64 16 -43 16 -47 -3 -89 -30 -69 -99 -95 -166
-63 -87 41 -88 177 -2 219 42 21 85 20 122 -3z m-85 -307 c9 -3 36 0 60 5 39
9 49 7 86 -15 23 -13 53 -39 67 -57 52 -69 71 -188 41 -247 -27 -53 -56 -60
-238 -60 -154 0 -166 1 -198 23 -44 29 -57 83 -41 169 14 76 49 131 109 168
45 29 54 30 114 14z"/>
<path d="M2407 966 c-105 -39 -156 -164 -111 -276 l16 -40 -45 -40 c-56 -50
-85 -95 -103 -163 -40 -150 10 -275 124 -307 48 -13 336 -13 384 0 45 13 93
51 116 94 12 23 16 54 15 118 -1 113 -36 193 -111 258 l-50 43 19 31 c27 45
25 131 -4 187 -47 88 -157 130 -250 95z m143 -88 c47 -29 64 -112 35 -167 -15
-30 -69 -61 -104 -61 -79 0 -144 84 -121 155 13 40 53 82 83 88 29 6 85 -2
107 -15z m-70 -302 c25 0 59 4 75 8 94 24 203 -170 166 -295 -21 -70 -48 -79
-241 -79 -147 0 -169 2 -198 20 -39 24 -52 55 -52 123 1 63 18 115 55 163 40
52 83 76 120 68 17 -5 50 -8 75 -8z"/>
<path d="M1166 264 c-18 -46 3 -59 164 -102 81 -21 117 -25 245 -25 128 0 164
4 245 25 161 43 182 56 164 102 -8 21 -36 20 -109 -5 -182 -62 -401 -64 -587
-4 -90 29 -114 31 -122 9z"/>
</g>
</svg>
