<?xml version="1.0" standalone="no"?>
<!DOCTYPE svg PUBLIC "-//W3C//DTD SVG 20010904//EN"
 "http://www.w3.org/TR/2001/REC-SVG-20010904/DTD/svg10.dtd">
<svg version="1.0" xmlns="http://www.w3.org/2000/svg"
 width="291.000000pt" height="252.000000pt" viewBox="0 0 291.000000 252.000000"
 preserveAspectRatio="xMidYMid meet">

<g transform="translate(0.000000,252.000000) scale(0.100000,-0.100000)"
fill="#000000" stroke="none">
<path d="M539 2301 c-24 -25 -29 -38 -29 -78 1 -73 42 -113 115 -113 52 0 105
53 105 105 0 73 -40 114 -113 115 -40 0 -53 -5 -78 -29z"/>
<path d="M965 2317 c-3 -6 -4 -174 -3 -372 l3 -360 180 -3 c99 -1 186 -5 194
-7 10 -4 -32 -53 -127 -149 -111 -111 -142 -148 -142 -169 0 -20 6 -28 26 -33
23 -6 43 10 193 160 91 91 173 166 181 166 8 0 89 -74 180 -165 91 -91 172
-165 180 -165 20 0 40 20 40 40 0 8 -63 78 -140 155 -77 77 -140 145 -140 152
0 9 46 13 188 15 l187 3 3 373 2 372 -500 0 c-392 0 -502 -3 -505 -13z m923
-351 c2 -197 -1 -283 -9 -292 -16 -19 -808 -21 -827 -2 -9 9 -12 87 -12 288 0
152 3 280 7 283 4 4 194 6 422 5 l416 -3 3 -279z"/>
<path d="M1480 2159 c0 -6 -6 -9 -14 -6 -18 7 -36 -11 -29 -29 3 -8 0 -14 -6
-14 -6 0 -11 -9 -11 -20 0 -11 5 -20 11 -20 6 0 9 -6 6 -14 -7 -18 11 -36 29
-29 8 3 14 0 14 -6 0 -6 9 -11 20 -11 11 0 20 5 20 11 0 6 6 9 14 6 18 -7 36
11 29 29 -3 8 0 14 6 14 6 0 11 9 11 20 0 11 -5 20 -11 20 -6 0 -9 6 -6 14 7
18 -11 36 -29 29 -8 -3 -14 0 -14 6 0 6 -9 11 -20 11 -11 0 -20 -5 -20 -11z
m54 -51 c8 -13 8 -23 0 -35 -16 -26 -51 -28 -64 -4 -25 47 36 83 64 39z"/>
<path d="M1340 2009 c-9 -15 -18 -19 -35 -15 -28 7 -51 -17 -47 -49 2 -13 -3
-25 -12 -28 -21 -8 -22 -67 -1 -67 11 0 15 -9 13 -28 -3 -41 10 -55 43 -48 22
4 29 1 34 -14 9 -28 61 -28 70 0 5 15 12 19 31 14 33 -8 55 12 48 42 -4 17 -1
26 10 30 21 8 21 60 -1 72 -10 6 -14 16 -9 27 10 26 -21 56 -50 49 -16 -4 -25
0 -34 15 -6 12 -19 21 -30 21 -11 0 -24 -9 -30 -21z m71 -79 c24 -13 26 -66 2
-92 -33 -37 -103 -11 -103 39 0 57 47 81 101 53z"/>
<path d="M1551 1999 c-15 -6 -21 -15 -17 -24 3 -8 1 -15 -4 -15 -6 0 -10 -7
-10 -15 0 -8 4 -15 9 -15 5 0 8 -8 7 -17 0 -11 6 -17 17 -17 9 1 17 -2 17 -7
0 -5 7 -9 15 -9 8 0 15 5 15 10 0 6 8 10 18 8 10 -2 17 3 17 12 0 8 4 18 8 21
16 11 -5 60 -30 70 -29 11 -31 11 -62 -2z m57 -52 c3 -23 0 -27 -22 -27 -21 0
-26 5 -26 23 0 13 3 27 7 31 15 14 38 0 41 -27z"/>
<path d="M381 2054 l-31 -26 0 -227 c0 -239 2 -251 46 -251 39 0 43 19 46 195
2 124 6 169 16 173 9 3 12 -91 12 -445 l0 -450 23 -21 c29 -27 61 -28 87 -2
19 19 20 33 20 278 0 142 3 262 7 265 3 4 12 2 20 -4 10 -9 13 -56 13 -210 l0
-198 36 24 c20 14 47 25 60 25 l24 0 2 368 c3 318 5 367 18 367 13 0 15 -27
18 -169 3 -177 7 -196 46 -196 44 0 46 12 46 246 l0 222 -29 31 -29 31 -210 0
-210 0 -31 -26z"/>
<path d="M695 1120 c-66 -43 -84 -130 -40 -194 l24 -36 -52 0 c-99 0 -157 -55
-157 -147 l0 -43 301 0 301 0 -4 60 c-6 91 -55 130 -159 130 l-52 0 23 25 c30
32 39 109 16 153 -36 70 -135 96 -201 52z"/>
<path d="M1378 1115 c-61 -41 -76 -126 -33 -189 l24 -36 -52 0 c-99 0 -157
-55 -157 -147 l0 -43 301 0 301 0 -4 60 c-6 91 -55 130 -159 130 l-52 0 23 25
c31 33 39 109 16 154 -37 71 -138 94 -208 46z"/>
<path d="M2068 1115 c-61 -41 -76 -126 -33 -189 l24 -36 -52 0 c-99 0 -157
-55 -157 -147 l0 -43 301 0 301 0 -4 60 c-6 91 -55 130 -159 130 l-52 0 23 25
c31 33 39 109 16 154 -37 71 -138 94 -208 46z"/>
<path d="M361 613 c-77 -39 -96 -156 -36 -216 15 -16 13 -17 -35 -17 -103 0
-160 -51 -160 -142 l0 -48 300 0 300 0 0 48 c0 90 -59 142 -161 142 l-52 0 24
26 c20 21 24 36 24 85 0 54 -3 61 -37 95 -29 30 -45 37 -85 41 -32 2 -59 -2
-82 -14z"/>
<path d="M1070 623 c-26 -11 -65 -44 -77 -66 -24 -44 -13 -125 22 -160 15 -16
13 -17 -35 -17 -103 0 -160 -51 -160 -142 l0 -48 300 0 300 0 0 48 c0 90 -59
142 -161 142 l-52 0 24 26 c20 21 24 36 24 85 0 54 -3 61 -37 95 -30 30 -44
37 -85 40 -26 2 -55 1 -63 -3z"/>
<path d="M1760 623 c-26 -11 -65 -44 -77 -66 -24 -44 -13 -125 22 -160 15 -16
13 -17 -35 -17 -103 0 -160 -51 -160 -142 l0 -48 300 0 300 0 0 48 c0 90 -59
142 -161 142 l-52 0 24 26 c20 21 24 36 24 85 0 54 -3 61 -37 95 -30 30 -44
37 -85 40 -26 2 -55 1 -63 -3z"/>
<path d="M2450 622 c-56 -26 -90 -73 -90 -124 0 -43 12 -79 35 -101 15 -16 13
-17 -35 -17 -103 0 -160 -51 -160 -142 l0 -48 300 0 300 0 0 48 c0 90 -59 142
-161 142 l-52 0 24 26 c20 21 24 36 24 85 0 54 -3 61 -37 95 -30 30 -44 37
-85 40 -26 2 -55 0 -63 -4z"/>
</g>
</svg>
